<?xml version="1.0" encoding="utf-8"?>
<!-- Generator: Adobe Illustrator 25.0.0, SVG Export Plug-In . SVG Version: 6.00 Build 0)  -->
<svg version="1.1" id="Capa_1" xmlns="http://www.w3.org/2000/svg" xmlns:xlink="http://www.w3.org/1999/xlink" x="0px" y="0px"
	 viewBox="0 0 841.89 595.28" style="enable-background:new 0 0 841.89 595.28;" xml:space="preserve">
<style type="text/css">
	.st0{fill:#FFFFFF;}
</style>
<g>
	<path class="st0" d="M158.93,415.34l-10.11-3.42c-31.46-10.66-52.61-39.05-52.61-70.66c0-39.05,69.92-147.71,72.9-152.32l6.44-9.98
		l6.46,9.98c2.96,4.61,72.89,113.27,72.89,152.32c0,31.61-21.15,60-52.62,70.66l-10.1,3.42v-42.26l-16.64-15.72l-16.63,15.72V415.34
		z M175.56,337.13l31.75,30.03v26.89c19.78-10.65,32.47-30.76,32.47-52.8c0-26.32-41.69-98.58-64.22-134.69
		c-22.53,36.12-64.23,108.39-64.23,134.69c0,22.04,12.7,42.15,32.49,52.8v-26.89L175.56,337.13z"/>
	<g>
		<path class="st0" d="M303.57,277.06c16.81,0,27.22,6.7,27.92,19.38l-18.1,2.28c-1-5.99-4.28-7.98-8.98-7.98
			c-4.27,0-7.69,2.42-7.69,6.84c0,14.4,36.05,1.43,36.05,30.2c0,12.25-9.12,20.8-28.64,20.8c-11.25,0-19.52-2.56-25.78-7.13
			l2.56-15.1c3.7,2.7,12.82,7.41,22.65,7.41c7.12,0,9.98-2.29,9.98-6.14c0-12.96-35.76-2.28-35.76-29.06
			C277.78,285.61,286.61,277.06,303.57,277.06z"/>
		<path class="st0" d="M337.05,312.96c0-23.07,12.11-35.9,31.63-35.9c19.52,0,31.63,13.11,31.63,35.9
			c0,22.8-12.11,35.62-31.63,35.62C349.15,348.58,337.05,335.75,337.05,312.96z M356.28,312.96c0,12.26,3.98,19.81,12.4,19.81
			c8.41,0,12.39-7.55,12.39-19.81c0-12.25-3.98-20.08-12.39-20.08C360.26,292.87,356.28,300.71,356.28,312.96z"/>
		<path class="st0" d="M408.56,245.71h18.81v86.06c2.28,0.57,5.7,0.85,8.69,0.85l-0.28,14.53c-2.71,0.58-6.27,1-11.26,1
			c-10.26,0-15.96-2.56-15.96-15.68V245.71z"/>
		<path class="st0" d="M499.46,278.91l-24.64,67.96H459l-18.53-52.72c-1.7-0.43-3.84-0.71-6.55-0.71l0.57-14.39
			c1.57-0.57,4.13-1.71,8.41-1.71c7.26,0,11.82,2.57,14.11,10.55l10.25,37.04l13.82-47.59L499.46,278.91z"/>
		<path class="st0" d="M532.51,332.91c8.54,0,15.67-4.28,18.66-6.84l4.7,14.53c-2.98,2.99-12.82,7.99-25.07,7.99
			c-21.23,0-31.77-14.11-31.77-36.76c0-20.38,11.82-34.77,29.77-34.77c19.09,0,28.21,14.53,28.21,33.77v6.41h-38.76
			C519.11,327.63,523.39,332.91,532.51,332.91z M518.39,306.12h19.67c-0.43-10.11-3.7-14.24-9.26-14.24
			C523.39,291.88,519.4,295.87,518.39,306.12z"/>
		<path class="st0" d="M634.94,332.62l-0.29,14.53c-2.56,0.71-5.13,1-10.54,1c-10.25,0-14.95-2.56-14.95-14.25v-26.49
			c0-10.12-3.43-13.83-9.69-13.83c-6.55,0-11.26,6.84-11.26,15.53v37.75h-18.95v-52.72c-1.56-0.57-3.71-0.85-6.26-0.85l0.28-14.53
			c1.15-0.28,4.56-1.56,9.26-1.56c7.12,0,12.12,2.71,14.39,9.26c4.13-5.56,10.4-9.41,18.81-9.41c15.25,0,22.37,8.69,22.37,26.22
			v28.5C629.81,332.34,632.24,332.62,634.94,332.62z"/>
		<path class="st0" d="M663.71,294.01v30.49c0,5.7,1.57,7.55,5.42,7.55c3.56,0,6.69-1,8.12-1.71l1.29,15.96
			c-2.71,0.85-7.98,2.28-15.39,2.28c-13.11,0-18.38-4.84-18.38-21.65v-32.92h-10.97v-15.52h10.97v-19.95h18.95v19.95h15.24v15.52
			H663.71z"/>
		<path class="st0" d="M682.65,312.96c0-23.07,12.12-35.9,31.63-35.9c19.52,0,31.63,13.11,31.63,35.9
			c0,22.8-12.11,35.62-31.63,35.62C694.77,348.58,682.65,335.75,682.65,312.96z M701.89,312.96c0,12.26,3.99,19.81,12.39,19.81
			c8.41,0,12.4-7.55,12.4-19.81c0-12.25-3.99-20.08-12.4-20.08C705.88,292.87,701.89,300.71,701.89,312.96z"/>
	</g>
</g>
</svg>
