<?xml version="1.0" encoding="utf-8"?>
<!-- Generator: Adobe Illustrator 25.0.0, SVG Export Plug-In . SVG Version: 6.00 Build 0)  -->
<svg version="1.1" xmlns="http://www.w3.org/2000/svg" xmlns:xlink="http://www.w3.org/1999/xlink" x="0px" y="0px"
	 viewBox="0 0 1440 900" style="enable-background:new 0 0 1440 900;" xml:space="preserve">
<style type="text/css">
	.st0{fill:#E0007A;}
	.st1{font-family:'SFFourche';}
	.st2{font-size:127.2338px;}
</style>
<g id="Capa_1">
</g>
<g id="Capa_2">
	<g>
		<g>
			<path d="M669.46,392.99c-5.69-3.41-11.84-7.06-17.96-10.78c-17.95-10.91-35.84-21.92-53.86-32.72c-3.84-2.3-5.68-4.85-5.67-9.64
				c0.2-51.61,0.13-103.23,0.18-154.84c0-2.03,0.33-4.05,0.71-8.31c6.18,7.97,11.13,14.19,15.91,20.55
				c18.65,24.78,42.57,51.8,60.45,77.12"/>
			<path d="M591.93,369.53c21,13.37,40.26,26.97,60.79,38.26c14.01,7.7,18.72,17.82,19.78,33.17c2.58,37.34,6.98,74.56,10.63,111.82
				c0.25,2.59,0.34,5.2,0.64,9.9c-2.89-2.68-4.67-3.98-6.02-5.64c-25.51-31.24-50.84-62.62-76.53-93.71
				c-6.79-8.21-10.26-17.1-10.14-27.67c0.22-19.7,0.22-39.39,0.35-59.09C591.42,374.71,591.68,372.84,591.93,369.53z"/>
			<path d="M588.28,483.43c-12.59-13.31-17.86-28.1-17.67-46.2c0.48-47.81,0.18-95.62-0.11-143.43c-0.02-3.05-1.65-7.31-3.98-8.96
				c-29.01-20.52-58.29-40.67-87.52-60.88c-1.45-1-3.13-1.67-6.51-3.43c0.48,5.36,0.76,8.65,1.06,11.93c2.4,26.06,5,52.1,7.09,78.19
				c0.51,6.36,0.21,12.98-5.36,17.95c-25.25,22.53-50.37,45.21-75.65,67.72c-7.17,6.39-14.65,12.43-22.08,18.52
				c-3.44,2.82-3.73,5.5-1.12,9.21c13.37,19.07,26.67,38.2,39.76,57.46c4.86,7.15,10.99,9.19,19.26,7.35
				c19.68-4.38,39.39-8.69,59.21-12.41c4.58-0.86,10.18-0.44,14.38,1.45c36.97,16.71,73.72,33.9,110.55,50.92
				c2.27,1.05,4.69,1.77,7.03,2.64C614.56,514.46,602.23,498.18,588.28,483.43z M483.63,394.77c-1.05,0.84-3.74,0.57-5.17-0.16
				c-5.91-3.04-11.63-6.46-19.41-10.86c19.15-5.38,36.22-10.18,53.29-14.99c0.31,0.5,0.61,1,0.92,1.51
				C503.42,378.47,493.64,386.76,483.63,394.77z"/>
			<path d="M814.7,531.46c2.35-0.87,4.77-1.59,7.03-2.64c36.83-17.01,73.59-34.2,110.55-50.92c4.2-1.9,9.8-2.31,14.38-1.45
				c19.82,3.72,39.52,8.03,59.21,12.41c8.27,1.84,14.4-0.21,19.26-7.35c13.09-19.26,26.39-38.39,39.76-57.46
				c2.61-3.72,2.32-6.39-1.12-9.21c-7.43-6.09-14.91-12.13-22.08-18.52c-25.27-22.51-50.39-45.19-75.65-67.72
				c-5.57-4.97-5.87-11.59-5.36-17.95c2.09-26.08,4.69-52.13,7.09-78.19c0.3-3.29,0.58-6.58,1.06-11.93
				c-3.37,1.76-5.06,2.43-6.51,3.43c-29.23,20.21-58.51,40.36-87.52,60.88c-2.33,1.65-3.96,5.9-3.98,8.96
				c-0.28,47.81-0.59,95.63-0.11,143.43c0.18,18.11-5.08,32.89-17.67,46.2C839.11,498.18,826.78,514.46,814.7,531.46z
				 M928.08,370.26c0.31-0.5,0.61-1,0.92-1.51c17.07,4.8,34.14,9.6,53.29,14.99c-7.78,4.41-13.5,7.82-19.41,10.86
				c-1.43,0.73-4.12,1-5.17,0.16C947.7,386.76,937.92,378.47,928.08,370.26z"/>
			<path d="M771.63,392.99c5.69-3.41,11.84-7.06,17.96-10.78c17.95-10.91,35.84-21.92,53.86-32.72c3.84-2.3,5.68-4.85,5.67-9.64
				c-0.2-51.61-0.13-103.23-0.18-154.84c0-2.03-0.33-4.05-0.71-8.31c-6.18,7.97-11.13,14.19-15.91,20.55
				c-18.65,24.78-42.57,51.8-60.45,77.12"/>
			<path d="M849.16,369.53c-21,13.37-40.26,26.97-60.79,38.26c-14.01,7.7-18.72,17.82-19.78,33.17
				c-2.58,37.34-6.98,74.56-10.63,111.82c-0.25,2.59-0.34,5.2-0.64,9.9c2.89-2.68,4.67-3.98,6.02-5.64
				c25.51-31.24,50.84-62.62,76.53-93.71c6.79-8.21,10.26-17.1,10.14-27.67c-0.22-19.7-0.22-39.39-0.35-59.09
				C849.67,374.71,849.41,372.84,849.16,369.53z"/>
			<g>
				<polygon class="st0" points="669.52,392.99 687.76,401.95 702.61,503.94 720.58,507.45 720.58,260.27 669.23,274.37 				"/>
				<polygon class="st0" points="771.64,392.99 753.41,401.95 738.56,503.94 720.58,507.45 720.58,260.27 771.94,274.37 				"/>
			</g>
		</g>
		<text transform="matrix(1.1082 0 0 1 373.365 697.8496)" class="st0 st1 st2">CERBERO</text>
	</g>
</g>
</svg>
